<svg width="197" height="53" viewBox="0 0 197 53" fill="none" xmlns="http://www.w3.org/2000/svg">
<path d="M0 5.5H80" stroke="white" stroke-width="3"/>
<path d="M0 48.5H80" stroke="white" stroke-width="3"/>
<path d="M2.684 43L8.876 13.84H12.8L19.028 43H15.176L13.844 35.656H7.904L6.5 43H2.684ZM8.444 32.74H13.304L10.856 19.6L8.444 32.74ZM29.5108 43.324C27.3988 43.324 25.7788 42.904 24.6508 42.064C23.5228 41.224 22.7548 40.048 22.3468 38.536C21.9388 37 21.7348 35.212 21.7348 33.172V13.84H25.6228V33.352C25.6228 34.6 25.7068 35.74 25.8748 36.772C26.0428 37.804 26.4028 38.62 26.9548 39.22C27.5308 39.82 28.3828 40.12 29.5108 40.12C30.6628 40.12 31.5148 39.82 32.0668 39.22C32.6188 38.62 32.9788 37.804 33.1468 36.772C33.3148 35.74 33.3988 34.6 33.3988 33.352V13.84H37.2508V33.172C37.2508 35.212 37.0468 37 36.6388 38.536C36.2308 40.048 35.4628 41.224 34.3348 42.064C33.2308 42.904 31.6228 43.324 29.5108 43.324ZM44.7376 43V16.864H39.8056V13.84H53.5936V16.864H48.8056V43H44.7376ZM63.8567 43.324C61.8887 43.324 60.3167 42.94 59.1407 42.172C57.9647 41.404 57.1247 40.312 56.6207 38.896C56.1167 37.456 55.8647 35.776 55.8647 33.856V22.804C55.8647 20.884 56.1167 19.24 56.6207 17.872C57.1487 16.48 57.9887 15.424 59.1407 14.704C60.3167 13.96 61.8887 13.588 63.8567 13.588C65.8247 13.588 67.3847 13.96 68.5367 14.704C69.6887 15.448 70.5167 16.504 71.0207 17.872C71.5487 19.24 71.8127 20.884 71.8127 22.804V33.892C71.8127 35.788 71.5487 37.444 71.0207 38.86C70.5167 40.276 69.6887 41.38 68.5367 42.172C67.3847 42.94 65.8247 43.324 63.8567 43.324ZM63.8567 40.12C64.9367 40.12 65.7527 39.904 66.3047 39.472C66.8567 39.016 67.2287 38.392 67.4207 37.6C67.6127 36.784 67.7087 35.836 67.7087 34.756V21.976C67.7087 20.896 67.6127 19.972 67.4207 19.204C67.2287 18.412 66.8567 17.812 66.3047 17.404C65.7527 16.972 64.9367 16.756 63.8567 16.756C62.7767 16.756 61.9487 16.972 61.3727 17.404C60.8207 17.812 60.4487 18.412 60.2567 19.204C60.0647 19.972 59.9687 20.896 59.9687 21.976V34.756C59.9687 35.836 60.0647 36.784 60.2567 37.6C60.4487 38.392 60.8207 39.016 61.3727 39.472C61.9487 39.904 62.7767 40.12 63.8567 40.12ZM75.811 43V13.84H87.115V16.864H79.879V26.512H85.747V29.392H79.879V40.084H87.187V43H75.811ZM97.9951 43.324C95.8831 43.324 94.2631 42.904 93.1351 42.064C92.0071 41.224 91.2391 40.048 90.8311 38.536C90.4231 37 90.2191 35.212 90.2191 33.172V13.84H94.1071V33.352C94.1071 34.6 94.1911 35.74 94.3591 36.772C94.5271 37.804 94.8871 38.62 95.4391 39.22C96.0151 39.82 96.8671 40.12 97.9951 40.12C99.1471 40.12 99.9991 39.82 100.551 39.22C101.103 38.62 101.463 37.804 101.631 36.772C101.799 35.74 101.883 34.6 101.883 33.352V13.84H105.735V33.172C105.735 35.212 105.531 37 105.123 38.536C104.715 40.048 103.947 41.224 102.819 42.064C101.715 42.904 100.107 43.324 97.9951 43.324ZM110.018 43V13.84H115.886C117.83 13.84 119.438 14.104 120.71 14.632C121.982 15.136 122.918 15.964 123.518 17.116C124.142 18.244 124.454 19.732 124.454 21.58C124.454 22.708 124.334 23.74 124.094 24.676C123.854 25.588 123.47 26.368 122.942 27.016C122.414 27.64 121.718 28.096 120.854 28.384L124.994 43H121.07L117.254 29.32H114.086V43H110.018ZM114.086 26.404H115.634C116.786 26.404 117.722 26.26 118.442 25.972C119.162 25.684 119.69 25.192 120.026 24.496C120.362 23.8 120.53 22.828 120.53 21.58C120.53 19.876 120.218 18.652 119.594 17.908C118.97 17.14 117.734 16.756 115.886 16.756H114.086V26.404ZM136.138 43.324C134.17 43.324 132.598 42.94 131.422 42.172C130.246 41.404 129.406 40.312 128.902 38.896C128.398 37.456 128.146 35.776 128.146 33.856V22.804C128.146 20.884 128.398 19.24 128.902 17.872C129.43 16.48 130.27 15.424 131.422 14.704C132.598 13.96 134.17 13.588 136.138 13.588C138.106 13.588 139.666 13.96 140.818 14.704C141.97 15.448 142.798 16.504 143.302 17.872C143.83 19.24 144.094 20.884 144.094 22.804V33.892C144.094 35.788 143.83 37.444 143.302 38.86C142.798 40.276 141.97 41.38 140.818 42.172C139.666 42.94 138.106 43.324 136.138 43.324ZM136.138 40.12C137.218 40.12 138.034 39.904 138.586 39.472C139.138 39.016 139.51 38.392 139.702 37.6C139.894 36.784 139.99 35.836 139.99 34.756V21.976C139.99 20.896 139.894 19.972 139.702 19.204C139.51 18.412 139.138 17.812 138.586 17.404C138.034 16.972 137.218 16.756 136.138 16.756C135.058 16.756 134.23 16.972 133.654 17.404C133.102 17.812 132.73 18.412 132.538 19.204C132.346 19.972 132.25 20.896 132.25 21.976V34.756C132.25 35.836 132.346 36.784 132.538 37.6C132.73 38.392 133.102 39.016 133.654 39.472C134.23 39.904 135.058 40.12 136.138 40.12ZM148.092 43V13.84H155.328C157.08 13.84 158.472 14.164 159.504 14.812C160.56 15.436 161.328 16.348 161.808 17.548C162.288 18.748 162.528 20.2 162.528 21.904C162.528 23.44 162.252 24.772 161.7 25.9C161.172 27.028 160.38 27.904 159.324 28.528C158.268 29.128 156.948 29.428 155.364 29.428H152.16V43H148.092ZM152.16 26.512H154.032C155.208 26.512 156.132 26.38 156.804 26.116C157.476 25.852 157.956 25.396 158.244 24.748C158.532 24.076 158.676 23.14 158.676 21.94C158.676 20.548 158.568 19.48 158.352 18.736C158.16 17.992 157.74 17.476 157.092 17.188C156.444 16.9 155.436 16.756 154.068 16.756H152.16V26.512ZM165.389 43V13.84H176.693V16.864H169.457V26.512H175.325V29.392H169.457V40.084H176.765V43H165.389Z" fill="white"/>
</svg>
